<?xml version="1.0" encoding="utf-8"?>
<!-- Generator: Adobe Illustrator 25.0.0, SVG Export Plug-In . SVG Version: 6.00 Build 0)  -->
<svg version="1.1" id="Layer_1" xmlns="http://www.w3.org/2000/svg" xmlns:xlink="http://www.w3.org/1999/xlink" x="0px" y="0px"
	 viewBox="0 0 344.05 357.2" style="enable-background:new 0 0 344.05 357.2;" xml:space="preserve">
<style type="text/css">
	.st0{fill:#E60000;}
	.st1{fill:#2B2B2B;}
</style>
<g>
	<path class="st0" d="M242.75,166.83c-4.34,2.77-8.49,5.41-12.63,8.06c-11.37,7.27-22.74,14.55-34.1,21.83
		c-12.06,7.73-24.15,15.42-36.18,23.21c-5.76,3.73-11.99,6.09-18.86,5.74c-12.34-0.64-23.09-7.83-25.8-21.32
		c-2.32-11.51,3.22-23.44,13.33-29.92c19.33-12.41,38.69-24.77,58.04-37.16c8.37-5.35,16.72-10.72,25.11-16.05
		c1.05-0.66,1.33-1.16,0.57-2.34c-10.86-16.87-21.69-33.77-32.47-50.7c-0.8-1.26-1.42-1.52-2.74-0.66
		c-10.81,6.99-21.66,13.92-32.5,20.86c-13.59,8.7-27.2,17.37-40.78,26.07c-11.82,7.57-23.62,15.17-35.43,22.75
		c-8.46,5.43-16.86,10.96-25.44,16.21c-5.43,3.33-11.45,4.63-17.89,4.21c-10.01-0.66-19.76-6.88-23.38-17.09
		c-3.78-10.64-0.7-22.98,8.03-30.64c3.31-2.9,7.15-5.24,10.88-7.63c32.46-20.82,64.96-41.59,97.44-62.37
		c18.23-11.66,36.45-23.35,54.69-34.99c10.42-6.64,23.4-6.51,32.95,0.19c3.63,2.55,6.13,6.03,8.47,9.71
		c16.74,26.23,33.52,52.44,50.29,78.66c23.69,37.02,47.39,74.02,71.06,111.05c2.26,3.54,4.74,7.02,6.45,10.82
		c4.52,10.05,1.86,22.56-6,30.65c-3.61,3.72-8.07,6.21-12.36,8.95c-24.21,15.53-48.43,31.03-72.65,46.53
		c-21.2,13.56-42.41,27.11-63.61,40.67c-5.09,3.26-10.18,6.51-15.25,9.8c-5.9,3.83-12.38,5.75-19.38,5.17
		c-11.64-0.96-21.96-8.15-24.41-20.86c-2.34-12.1,2.03-22.11,11.88-29.24c7.89-5.71,16.35-10.65,24.57-15.91
		c20.87-13.37,41.75-26.75,62.63-40.11c15.74-10.07,31.5-20.14,47.25-30.19c2.04-1.3,2.05-1.28,0.75-3.31
		c-10.49-16.39-20.97-32.78-31.46-49.17C243.53,167.85,243.18,167.42,242.75,166.83z"/>
	<path class="st1" d="M167.97,83.38c9.28,0.24,17.02,3.56,22.02,11.7c4.51,7.35,4.43,15.14,1.26,22.98
		c-2.71,6.68-7.54,11.47-13.55,15.3c-19.46,12.37-38.85,24.83-58.28,37.25c-6.82,4.36-13.63,8.74-20.47,13.05
		c-1.27,0.8-1.61,1.35-0.67,2.81c10.94,16.95,21.78,33.96,32.66,50.94c1.79,2.79,1.82,2.8,4.58,1.04
		c13.51-8.63,27.01-17.27,40.51-25.91c12.94-8.28,25.77-16.75,38.87-24.78c10.16-6.24,20.89-7.12,31.35-0.71
		c9.55,5.85,13.17,17.31,9.52,28.31c-2.59,7.79-7.78,13.35-14.63,17.7c-13.85,8.79-27.59,17.76-41.4,26.61
		c-20.17,12.93-40.38,25.79-60.52,38.75c-14.77,9.5-31.68,3.86-39.98-8.7c-7.28-11.01-14.3-22.2-21.42-33.32
		c-7.3-11.4-14.6-22.8-21.88-34.21c-6.18-9.68-12.62-19.2-18.4-29.12c-6.41-10.98-5.04-26.15,5.18-35.01
		c3.7-3.21,8.02-5.73,12.16-8.41c11.46-7.4,22.96-14.73,34.46-22.07c18.08-11.56,36.14-23.16,54.28-34.63
		c4.34-2.75,8.84-5.29,13.46-7.53C160.43,83.8,164.17,83.27,167.97,83.38z"/>
</g>
</svg>
